PathFileType	4	(X/Y/Z)	C:\Users\u0088756\Documents\Phd\software\TrackingSim_Simtk\KSMarker.trc
DataRate	CameraRate	NumFrames	NumMarkers	Units	OrigDataRate	OrigDataStartFrame	OrigNumFrames
77.343750	77.343750	7	34	m	77.343750	1	100
Frame#	Times		RASI		LASI		CLAV		RSHO		LSHO		LKNE		LKNEmed		LTHI3		LANK		LANKmed		LTIB		LTIB2		LTIB3		LTOE		LHEE		LLatFoot		RPSI		LPSI		RASI		LASI		RKNE		RTHI		RTHI2		RTHI3		RANK		RANKmed		RTIB		RTIB2		RTIB3		RTOE		RHEE		RLatFoot		RPSI		LPSI
			X1	Y1	Z1	X2	Y2	Z2	X3	Y3	Z3	X4	Y4	Z4	X5	Y5	Z5	X6	Y6	Z6	X7	Y7	Z7	X8	Y8	Z8	X9	Y9	Z9	X10	Y10	Z10	X11	Y11	Z11	X12	Y12	Z12	X13	Y13	Z13	X14	Y14	Z14	X15	Y15	Z15	X16	Y16	Z16	X17	Y17	Z17	X18	Y18	Z18	X19	Y19	Z19	X20	Y20	Z20	X21	Y21	Z21	X22	Y22	Z22	X23	Y23	Z23	X24	Y24	Z24	X25	Y25	Z25	X26	Y26	Z26	X27	Y27	Z27	X28	Y28	Z28	X29	Y29	Z29	X30	Y30	Z30	X31	Y31	Z31	X32	Y32	Z32	X33	Y33	Z33	X34	Y34	Z34

1	0	0.37764	0.95893	0.16338	0.39104	0.93784	-0.077707	0.36256	1.4204	0.0038495	0.28651	1.4675	0.22123	0.24661	1.4462	-0.20891	0.45629	0.48361	-0.13673	0.47927	0.48468	-0.021964	0.37803	0.66333	-0.17777	0.58271	0.091298	-0.12534	0.62496	0.124	-0.040052	0.52216	0.30521	-0.1587	0.4715	0.27701	-0.15502	0.52183	0.24977	-0.15691	0.75913	0.12574	-0.11745	0.55266	0.02205	-0.057177	0.68007	0.046422	-0.16617	0.14409	0.98386	0.055332	0.1418	0.9847	-0.012981	0.37765	0.95893	0.16338	0.39104	0.93784	-0.077707	0.18675	0.4516	0.15975	0.29267	0.67358	0.21954	0.23144	0.6728	0.22389	0.25905	0.634	0.21537	0.045466	0.063735	0.13057	0.072873	0.075382	0.037415	0.12241	0.26021	0.17153	0.070576	0.27409	0.17351	0.083907	0.22092	0.16789	0.20995	0.022779	0.085817	-0.02688	0.019009	0.072186	0.12729	-0.015637	0.15832	0.14409	0.98386	0.055332	0.1418	0.9847	-0.012981
2	0.012929	0.39077	0.95671	0.16232	0.4044	0.93721	-0.078895	0.37619	1.4188	0.0022671	0.29946	1.4666	0.21928	0.26095	1.4442	-0.21094	0.47234	0.48399	-0.13838	0.49436	0.48475	-0.023423	0.39352	0.66348	-0.17939	0.58765	0.087832	-0.12376	0.62987	0.11979	-0.038175	0.53326	0.30314	-0.15872	0.48182	0.27633	-0.15545	0.53141	0.24774	-0.15668	0.76526	0.11567	-0.11374	0.55416	0.020465	-0.055552	0.68389	0.039024	-0.16293	0.15731	0.98226	0.054216	0.15508	0.98356	-0.014093	0.39077	0.95671	0.16232	0.4044	0.93721	-0.078896	0.19747	0.45015	0.15888	0.30513	0.67152	0.21785	0.24391	0.67113	0.22252	0.27124	0.63214	0.2139	0.04674	0.065529	0.13086	0.073842	0.076474	0.037528	0.12848	0.26019	0.17119	0.07699	0.27528	0.17348	0.089048	0.22181	0.16781	0.21039	0.022613	0.085563	-0.026512	0.021447	0.072851	0.12759	-0.014666	0.15849	0.15731	0.98226	0.054215	0.15508	0.98356	-0.014093
3	0.025859	0.4042	0.95479	0.16095	0.418	0.93681	-0.080369	0.3899	1.4175	0.00049575	0.31254	1.4658	0.21716	0.27532	1.4424	-0.21311	0.48854	0.48429	-0.13977	0.50953	0.48481	-0.02462	0.40932	0.66356	-0.18096	0.59294	0.084731	-0.1219	0.63503	0.11599	-0.036001	0.54462	0.30122	-0.15847	0.49246	0.27579	-0.15565	0.54129	0.24589	-0.1562	0.77138	0.10643	-0.10969	0.55627	0.019209	-0.053721	0.68802	0.032329	-0.15944	0.17077	0.98069	0.052866	0.16858	0.9824	-0.015435	0.4042	0.95479	0.16095	0.418	0.93681	-0.08037	0.20858	0.44889	0.15791	0.3178	0.66969	0.21613	0.25659	0.6697	0.221	0.28365	0.63053	0.21236	0.048322	0.067802	0.13107	0.075301	0.077966	0.037617	0.13483	0.26052	0.17078	0.083722	0.27683	0.17325	0.094482	0.22308	0.16762	0.21108	0.022372	0.085507	-0.025843	0.024616	0.07335	0.12792	-0.013468	0.15875	0.17077	0.98069	0.052865	0.16858	0.9824	-0.015435
4	0.038788	0.41789	0.95328	0.1592	0.43184	0.93678	-0.082222	0.40362	1.4164	-0.0015346	0.32567	1.4651	0.21482	0.28962	1.4409	-0.21551	0.50456	0.48443	-0.14081	0.52432	0.48476	-0.025445	0.42531	0.66357	-0.18249	0.59879	0.08204	-0.11983	0.64057	0.11267	-0.033544	0.55619	0.29946	-0.15794	0.50339	0.27531	-0.15566	0.55149	0.24424	-0.15546	0.77775	0.098084	-0.10516	0.55911	0.018313	-0.051809	0.69275	0.026374	-0.15564	0.18444	0.97924	0.051163	0.18228	0.98136	-0.017127	0.41789	0.95328	0.1592	0.43184	0.93678	-0.082222	0.22019	0.44792	0.15685	0.33065	0.66829	0.21438	0.26945	0.66864	0.21928	0.29629	0.6293	0.21074	0.050338	0.070652	0.13118	0.077433	0.079918	0.037665	0.14157	0.26131	0.17029	0.09088	0.27886	0.17277	0.10032	0.22485	0.16727	0.21209	0.021909	0.085692	-0.024757	0.028726	0.073623	0.12828	-0.012053	0.15909	0.18444	0.97924	0.051163	0.18228	0.98136	-0.017127
5	0.051717	0.43175	0.95205	0.15717	0.44596	0.9371	-0.084337	0.41736	1.4157	-0.0038138	0.33885	1.4647	0.21226	0.30388	1.4398	-0.21811	0.52013	0.48438	-0.14168	0.53841	0.4845	-0.026066	0.4414	0.66359	-0.18404	0.60516	0.079721	-0.11808	0.64635	0.10973	-0.031298	0.56781	0.29788	-0.15744	0.51448	0.27489	-0.15585	0.56188	0.24279	-0.15487	0.78441	0.089968	-0.10042	0.56232	0.01793	-0.050437	0.69795	0.020794	-0.15194	0.19833	0.97808	0.049085	0.19623	0.98062	-0.019192	0.43175	0.95205	0.15717	0.44596	0.9371	-0.084337	0.2325	0.4472	0.15574	0.34381	0.66732	0.21255	0.2826	0.66795	0.21737	0.30928	0.62846	0.20902	0.052862	0.074092	0.13129	0.080224	0.082341	0.037757	0.14885	0.26252	0.16977	0.09862	0.28136	0.17217	0.1067	0.22711	0.16686	0.21338	0.021209	0.086078	-0.023222	0.033822	0.073838	0.12871	-0.010408	0.15954	0.19833	0.97808	0.049085	0.19623	0.98062	-0.019191
6	0.064646	0.44575	0.95098	0.15508	0.46046	0.93765	-0.086487	0.43117	1.4153	-0.0062768	0.35212	1.4647	0.20953	0.31816	1.4389	-0.22087	0.5354	0.4843	-0.1427	0.5521	0.48414	-0.026846	0.45756	0.66373	-0.18573	0.61169	0.077707	-0.11712	0.65219	0.10704	-0.029783	0.57937	0.29651	-0.15739	0.52556	0.2746	-0.15655	0.57228	0.24155	-0.15482	0.79104	0.081499	-0.096086	0.56547	0.018173	-0.050046	0.70306	0.01525	-0.14887	0.21249	0.97723	0.046713	0.21051	0.98021	-0.02155	0.44575	0.95098	0.15508	0.46047	0.93765	-0.086487	0.24567	0.44662	0.15465	0.35741	0.66673	0.21065	0.2962	0.66753	0.21535	0.3228	0.62794	0.20724	0.055918	0.078104	0.13153	0.083571	0.085246	0.03799	0.1568	0.2641	0.16934	0.10708	0.28426	0.17161	0.11373	0.2298	0.16653	0.21486	0.020336	0.086588	-0.021251	0.039895	0.074187	0.12928	-0.008508	0.16012	0.21249	0.97723	0.046713	0.21051	0.98021	-0.02155
7	0.077576	0.4599	0.95008	0.15307	0.47536	0.93834	-0.088529	0.44504	1.4151	-0.0088497	0.36548	1.4648	0.20671	0.33243	1.4382	-0.22372	0.5509	0.48445	-0.14417	0.56618	0.48397	-0.028125	0.47385	0.66412	-0.18768	0.61788	0.075987	-0.11698	0.65783	0.10458	-0.029149	0.59083	0.29537	-0.15797	0.53656	0.27463	-0.15783	0.58253	0.24058	-0.15542	0.79706	0.072814	-0.092745	0.5683	0.018989	-0.05051	0.70745	0.0098087	-0.14673	0.22691	0.97658	0.044173	0.22513	0.98	-0.024075	0.4599	0.95008	0.15307	0.47536	0.93834	-0.08853	0.25985	0.4461	0.15365	0.3716	0.66644	0.20876	0.31038	0.66729	0.21336	0.33698	0.62764	0.20548	0.059514	0.082728	0.13191	0.087426	0.088697	0.038374	0.16551	0.266	0.16902	0.11637	0.28755	0.17117	0.12151	0.2329	0.16632	0.21648	0.019394	0.087155	-0.018833	0.047001	0.074716	0.12996	-0.0062776	0.16078	0.22691	0.97658	0.044173	0.22513	0.98	-0.024075
